<svg id="csdnc-monkey-pixel" viewBox="0 0 1706 1024"><path d="M1450.666667 768h-42.666667v170.666667H1237.333333v-42.666667H1066.666667v-42.666667H597.333333v42.666667H426.666667v42.666667H256V768h170.666667v-42.666667h85.333333v-42.666666h42.666667v-85.333334h-42.666667v-85.333333h-85.333333v-42.666667h-42.666667V298.666667h42.666667v128h42.666666v42.666666h42.666667V298.666667h-85.333333v-42.666667h85.333333V128h42.666667V85.333333h42.666666v42.666667h128v42.666667h85.333334V128h42.666666v42.666667h85.333334V128h128V85.333333h42.666666v42.666667h42.666667v128h85.333333v42.666667h-85.333333v170.666666h42.666667v-42.666666h42.666666v-128h42.666667v170.666666h-42.666667v42.666667h-85.333333v85.333333h-42.666667v85.333334h42.666667v42.666666h85.333333v42.666667h170.666667v-42.666667h42.666667v42.666667zM1066.666667 213.333333h-128v42.666667h-42.666667v42.666667h-42.666667v42.666666h-42.666666v-42.666666h-42.666667v-42.666667h-42.666667v-42.666667h-128v42.666667h-42.666666v128h42.666666v42.666667h42.666667v42.666666h42.666667v42.666667h-42.666667v42.666667h-42.666667v85.333333h85.333334v42.666667h298.666666v-42.666667h85.333334v-85.333333h-42.666667v-42.666667h-42.666667v-42.666667h42.666667v-42.666666h42.666667v-42.666667h42.666666v-128h-42.666666v-42.666667zM1024 42.666667h42.666667v42.666666h-128v42.666667h-85.333334V85.333333h42.666667V42.666667h-42.666667v42.666666h-42.666666V42.666667h-42.666667v42.666666h42.666667v42.666667h-85.333334V85.333333h-128V42.666667h42.666667V0h384v42.666667zM682.666667 384h42.666666v42.666667h-42.666666v-42.666667z m256 0h42.666666v42.666667h-42.666666v-42.666667zM768 554.666667h128v42.666666h-128v-42.666666z m554.666667-42.666667h42.666666v42.666667h-42.666666v-42.666667z m42.666666 42.666667h42.666667v42.666666h-42.666667v-42.666666z m85.333334 0h42.666666v42.666666h-42.666666v-42.666666z m-42.666667 42.666666h42.666667v42.666667h-42.666667v-42.666667z m42.666667 85.333334h42.666666v42.666666h-42.666666v-42.666666z m42.666666-42.666667h42.666667v42.666667h-42.666667v-42.666667z m42.666667-42.666667h42.666667v42.666667h-42.666667v-42.666667z m-170.666667-128h42.666667v42.666667h-42.666667v-42.666667z m170.666667 0h42.666667v42.666667h-42.666667v-42.666667z m42.666667 42.666667h42.666666v85.333333h-42.666666v-85.333333z m-170.666667-85.333333h128v42.666666h-128v-42.666666zM0 853.333333h213.333333v42.666667H0v-42.666667z m1450.666667 0h256v42.666667h-256v-42.666667z m-867.555556 128h213.333333v42.666667H583.111111v-42.666667z m270.222222-42.666666h170.666667v42.666666H853.333333v-42.666666z"></path></svg>